<?xml version="1.0" encoding="UTF-8" standalone="no"?>
<!DOCTYPE svg PUBLIC "-//W3C//DTD SVG 1.1//EN"
 "http://www.w3.org/Graphics/SVG/1.1/DTD/svg11.dtd">
<!-- Generated by graphviz version 2.47.0 (20210316.0004)
 -->
<!-- Title: dependencies Pages: 1 -->
<svg width="936pt" height="211pt"
 viewBox="0.00 0.00 936.00 211.00" xmlns="http://www.w3.org/2000/svg" xmlns:xlink="http://www.w3.org/1999/xlink">
<g id="graph0" class="graph" transform="scale(1 1) rotate(0) translate(4 207)">
<title>dependencies</title>
<polygon fill="white" stroke="transparent" points="-4,4 -4,-207 932,-207 932,4 -4,4"/>
<text text-anchor="start" x="443.01" y="-42.4" font-family="Times-12" font-weight="bold" font-size="14.00">Legend</text>
<polygon fill="#ffffb3" stroke="transparent" points="230,-10 230,-30 250,-30 250,-10 230,-10"/>
<text text-anchor="start" x="253.63" y="-15.4" font-family="Times-12" font-size="14.00"> &#160;Declarations</text>
<polygon fill="#8dd3c7" stroke="transparent" points="343,-10 343,-30 363,-30 363,-10 343,-10"/>
<text text-anchor="start" x="366.73" y="-15.4" font-family="Times-12" font-size="14.00"> &#160;Module</text>
<polygon fill="#80b1d3" stroke="transparent" points="429,-10 429,-30 449,-30 449,-10 429,-10"/>
<text text-anchor="start" x="452.78" y="-15.4" font-family="Times-12" font-size="14.00"> &#160;Bootstrap</text>
<polygon fill="#fdb462" stroke="transparent" points="526,-10 526,-30 546,-30 546,-10 526,-10"/>
<text text-anchor="start" x="549.67" y="-15.4" font-family="Times-12" font-size="14.00"> &#160;Providers</text>
<polygon fill="#fb8072" stroke="transparent" points="622,-10 622,-30 642,-30 642,-10 622,-10"/>
<text text-anchor="start" x="645.73" y="-15.4" font-family="Times-12" font-size="14.00"> &#160;Exports</text>
<g id="clust1" class="cluster">
<title>cluster_TasksModule</title>
<polygon fill="none" stroke="black" stroke-dasharray="1,5" points="8,-70 8,-195 920,-195 920,-70 8,-70"/>
</g>
<g id="clust2" class="cluster">
<title>cluster_TasksModule_declarations</title>
<polygon fill="none" stroke="black" points="178,-78 178,-130 912,-130 912,-78 178,-78"/>
</g>
<g id="clust8" class="cluster">
<title>cluster_TasksModule_imports</title>
<polygon fill="none" stroke="black" points="16,-78 16,-130 170,-130 170,-78 16,-78"/>
</g>
<!-- DateFormatPipe -->
<g id="node1" class="node">
<title>DateFormatPipe</title>
<polygon fill="#ffffb3" stroke="black" points="903.75,-122 796.25,-122 796.25,-86 903.75,-86 903.75,-122"/>
<text text-anchor="middle" x="850" y="-99.8" font-family="Times,serif" font-size="14.00">DateFormatPipe</text>
</g>
<!-- TasksModule -->
<g id="node6" class="node">
<title>TasksModule</title>
<polygon fill="#8dd3c7" stroke="black" points="545.21,-187 542.21,-191 521.21,-191 518.21,-187 452.79,-187 452.79,-151 545.21,-151 545.21,-187"/>
<text text-anchor="middle" x="499" y="-164.8" font-family="Times,serif" font-size="14.00">TasksModule</text>
</g>
<!-- DateFormatPipe&#45;&gt;TasksModule -->
<g id="edge1" class="edge">
<title>DateFormatPipe&#45;&gt;TasksModule</title>
<path fill="none" stroke="black" d="M850,-122.28C850,-143.32 850,-175 850,-175 850,-175 555.25,-175 555.25,-175"/>
<polygon fill="black" stroke="black" points="555.25,-171.5 545.25,-175 555.25,-178.5 555.25,-171.5"/>
</g>
<!-- MainTaskComponent -->
<g id="node2" class="node">
<title>MainTaskComponent</title>
<polygon fill="#ffffb3" stroke="black" points="778.09,-122 639.91,-122 639.91,-86 778.09,-86 778.09,-122"/>
<text text-anchor="middle" x="709" y="-99.8" font-family="Times,serif" font-size="14.00">MainTaskComponent</text>
</g>
<!-- MainTaskComponent&#45;&gt;TasksModule -->
<g id="edge2" class="edge">
<title>MainTaskComponent&#45;&gt;TasksModule</title>
<path fill="none" stroke="black" d="M709,-122.02C709,-139.37 709,-163 709,-163 709,-163 555.35,-163 555.35,-163"/>
<polygon fill="black" stroke="black" points="555.35,-159.5 545.35,-163 555.35,-166.5 555.35,-159.5"/>
</g>
<!-- TaskComponent -->
<g id="node3" class="node">
<title>TaskComponent</title>
<polygon fill="#ffffb3" stroke="black" points="622.05,-122 513.95,-122 513.95,-86 622.05,-86 622.05,-122"/>
<text text-anchor="middle" x="568" y="-99.8" font-family="Times,serif" font-size="14.00">TaskComponent</text>
</g>
<!-- TaskComponent&#45;&gt;TasksModule -->
<g id="edge3" class="edge">
<title>TaskComponent&#45;&gt;TasksModule</title>
<path fill="none" stroke="black" d="M524.19,-122.11C524.19,-122.11 524.19,-140.99 524.19,-140.99"/>
<polygon fill="black" stroke="black" points="520.69,-140.99 524.19,-150.99 527.69,-140.99 520.69,-140.99"/>
</g>
<!-- TaskComponent&#45;&gt;TasksModule -->
<g id="edge4" class="edge">
<title>TaskComponent&#45;&gt;TasksModule</title>
<path fill="none" stroke="black" d="M534.64,-122.11C534.64,-122.11 534.64,-140.99 534.64,-140.99"/>
<polygon fill="black" stroke="black" points="531.14,-140.99 534.64,-150.99 538.14,-140.99 531.14,-140.99"/>
</g>
<!-- TaskListComponent -->
<g id="node4" class="node">
<title>TaskListComponent</title>
<polygon fill="#ffffb3" stroke="black" points="496.32,-122 365.68,-122 365.68,-86 496.32,-86 496.32,-122"/>
<text text-anchor="middle" x="431" y="-99.8" font-family="Times,serif" font-size="14.00">TaskListComponent</text>
</g>
<!-- TaskListComponent&#45;&gt;TasksModule -->
<g id="edge5" class="edge">
<title>TaskListComponent&#45;&gt;TasksModule</title>
<path fill="none" stroke="black" d="M481.74,-122.11C481.74,-122.11 481.74,-140.99 481.74,-140.99"/>
<polygon fill="black" stroke="black" points="478.24,-140.99 481.74,-150.99 485.24,-140.99 478.24,-140.99"/>
</g>
<!-- TaskListComponent&#45;&gt;TasksModule -->
<g id="edge6" class="edge">
<title>TaskListComponent&#45;&gt;TasksModule</title>
<path fill="none" stroke="black" d="M467.32,-122.11C467.32,-122.11 467.32,-140.99 467.32,-140.99"/>
<polygon fill="black" stroke="black" points="463.82,-140.99 467.32,-150.99 470.82,-140.99 463.82,-140.99"/>
</g>
<!-- TaskStatusColorDirective -->
<g id="node5" class="node">
<title>TaskStatusColorDirective</title>
<polygon fill="#ffffb3" stroke="black" points="347.91,-122 186.09,-122 186.09,-86 347.91,-86 347.91,-122"/>
<text text-anchor="middle" x="267" y="-99.8" font-family="Times,serif" font-size="14.00">TaskStatusColorDirective</text>
</g>
<!-- TaskStatusColorDirective&#45;&gt;TasksModule -->
<g id="edge7" class="edge">
<title>TaskStatusColorDirective&#45;&gt;TasksModule</title>
<path fill="none" stroke="black" d="M267,-122.02C267,-139.37 267,-163 267,-163 267,-163 442.89,-163 442.89,-163"/>
<polygon fill="black" stroke="black" points="442.89,-166.5 452.89,-163 442.89,-159.5 442.89,-166.5"/>
</g>
<!-- TasksRoutingModule -->
<g id="node7" class="node">
<title>TasksRoutingModule</title>
<polygon fill="#8dd3c7" stroke="black" points="161.82,-122 158.82,-126 137.82,-126 134.82,-122 24.18,-122 24.18,-86 161.82,-86 161.82,-122"/>
<text text-anchor="middle" x="93" y="-99.8" font-family="Times,serif" font-size="14.00">TasksRoutingModule</text>
</g>
<!-- TasksRoutingModule&#45;&gt;TasksModule -->
<g id="edge8" class="edge">
<title>TasksRoutingModule&#45;&gt;TasksModule</title>
<path fill="none" stroke="black" d="M93,-122.28C93,-143.32 93,-175 93,-175 93,-175 442.82,-175 442.82,-175"/>
<polygon fill="black" stroke="black" points="442.82,-178.5 452.82,-175 442.82,-171.5 442.82,-178.5"/>
</g>
</g>
</svg>
